<svg version="1.1" id="Layer_1" xmlns="http://www.w3.org/2000/svg" xmlns:xlink="http://www.w3.org/1999/xlink" x="0px" y="0px"
	 width="100%" viewBox="0 0 96 96" enable-background="new 0 0 96 96" xml:space="preserve">
<path fill="#000000" opacity="1.000000" stroke="none" 
	d="
M68.000000,97.000000 
	C45.698124,97.000000 23.396244,97.000000 1.094366,97.000000 
	C1.062911,96.865021 1.003907,96.730049 1.003890,96.595070 
	C0.999882,64.806572 1.000000,33.018074 1.000000,1.000000 
	C16.900202,1.000000 32.801510,1.000000 48.702816,1.000000 
	C64.680283,1.000000 80.657745,1.000000 97.000000,1.000000 
	C97.000000,18.019157 97.000000,35.040920 96.805672,52.854141 
	C95.994720,53.234478 95.378105,52.823360 94.823517,51.911335 
	C94.885544,40.022682 94.885544,28.634939 94.885544,17.138485 
	C91.269524,17.138485 88.140808,17.138485 84.546692,17.073418 
	C64.366516,17.063259 44.651745,17.118166 24.491737,17.102957 
	C22.386278,17.021078 20.706923,17.166098 19.069653,16.966282 
	C15.159170,16.489033 13.544880,17.982958 13.943035,22.001081 
	C14.203236,24.626984 13.929022,27.305843 13.662086,29.988844 
	C13.429987,30.016706 12.986910,30.165932 12.589556,30.095238 
	C8.723968,29.976040 8.769938,32.135647 9.244052,34.638165 
	C9.831161,37.737095 10.347949,40.849350 10.587163,43.976452 
	C9.813118,44.311840 9.347026,44.626621 8.479014,44.985085 
	C7.721778,46.492855 6.713114,48.181114 7.125121,49.381927 
	C8.837780,54.373543 10.978766,59.218197 12.975653,64.500282 
	C13.695445,67.258675 14.402164,69.633568 15.142345,72.374008 
	C16.626074,76.123947 17.232607,81.110451 19.763329,82.443207 
	C22.306454,83.782509 26.767780,81.494637 30.379751,80.753609 
	C30.610897,80.706184 30.766636,80.291214 31.337376,79.999809 
	C40.084270,76.984344 48.451244,74.016296 56.895027,71.502769 
	C56.712883,79.307228 56.386169,86.677109 62.972160,92.290375 
	C63.370892,92.637711 63.677525,92.735115 64.221901,92.914047 
	C64.622574,93.034668 64.785507,93.073761 65.101341,93.447113 
	C66.169502,94.854240 67.084747,95.927124 68.000000,97.000000 
z"/>
<path fill="#FFD200" opacity="1.000000" stroke="none" 
	d="
M68.467941,97.000000 
	C67.084747,95.927124 66.169502,94.854240 65.250839,93.172272 
	C65.833824,91.702820 66.420204,90.842445 67.365814,90.061127 
	C76.950081,94.818588 84.327156,93.726990 89.840439,86.524559 
	C94.713326,80.158722 93.420433,73.540291 90.300293,66.862473 
	C91.508759,66.441078 92.399155,66.163658 93.538025,66.084709 
	C94.857666,66.855453 95.928833,67.427727 97.000000,68.000000 
	C97.000000,73.688042 97.000000,79.376083 96.744034,85.201828 
	C92.893181,88.877319 89.291405,92.408249 85.731888,95.981277 
	C85.606621,96.107025 85.901138,96.650970 86.000000,97.000000 
	C80.311958,97.000000 74.623917,97.000000 68.467941,97.000000 
z"/>
<path fill="#F8906B" opacity="1.000000" stroke="none" 
	d="
M97.000000,67.533882 
	C95.928833,67.427727 94.857666,66.855453 93.446182,65.805374 
	C92.999092,64.950737 92.892311,64.573914 92.837929,63.758171 
	C93.081909,56.470741 90.834190,52.505947 86.038383,51.232975 
	C80.654877,49.804008 76.558884,51.742321 73.655167,57.047073 
	C71.923264,57.424248 70.532326,57.685989 69.246948,57.616341 
	C72.414734,49.289913 75.989746,46.884510 85.527512,46.707314 
	C88.789856,48.688602 91.775665,50.550426 94.761482,52.412247 
	C95.378105,52.823360 95.994720,53.234478 96.805672,53.322800 
	C97.000000,57.689255 97.000000,62.378510 97.000000,67.533882 
z"/>
<path fill="#000000" opacity="1.000000" stroke="none" 
	d="
M86.482956,97.000000 
	C85.901138,96.650970 85.606621,96.107025 85.731888,95.981277 
	C89.291405,92.408249 92.893181,88.877319 96.744034,85.669762 
	C97.000000,89.587212 97.000000,93.174416 97.000000,97.000000 
	C93.657448,97.000000 90.311684,97.000000 86.482956,97.000000 
z"/>
<path fill="#33C17F" opacity="1.000000" stroke="none" 
	d="
M85.250977,46.587852 
	C75.989746,46.884510 72.414734,49.289913 68.972969,57.636173 
	C68.230576,58.002659 67.867714,58.017918 67.115524,57.913353 
	C65.157829,57.540268 63.589481,57.287006 61.551712,57.014496 
	C54.710426,57.007030 48.338562,57.018814 41.745441,57.036224 
	C41.524185,57.041851 41.083271,57.081089 40.815948,57.180691 
	C39.618717,58.283291 38.688812,59.286293 37.727337,60.323345 
	C36.238644,59.416782 34.713196,58.487835 33.178123,57.553028 
	C32.703770,58.771770 32.251537,59.933685 31.596020,61.617886 
	C29.128603,59.867249 26.985565,58.346756 24.873003,56.369560 
	C24.914644,42.999599 24.925812,30.086336 24.936977,17.173075 
	C44.651745,17.118166 64.366516,17.063259 84.525307,17.532623 
	C85.063210,27.567217 85.157089,37.077534 85.250977,46.587852 
M50.589104,31.783236 
	C50.082184,33.769867 49.575268,35.756496 49.057140,38.546677 
	C50.342056,47.970154 59.054787,53.513451 67.648087,49.795567 
	C70.803810,48.430252 73.194168,45.295895 76.683609,43.008278 
	C82.008636,40.699253 80.695198,35.369423 82.769196,31.581034 
	C82.379082,31.343180 81.988960,31.105324 81.598846,30.867470 
	C80.749786,31.836863 79.900734,32.806255 79.253220,33.545547 
	C77.835800,32.724049 76.485092,31.941214 74.963852,30.461603 
	C71.996254,24.788237 67.007790,22.488672 60.987976,23.191050 
	C56.308479,23.737038 51.929169,25.569954 50.589104,31.783236 
M39.309532,36.476604 
	C39.888649,37.553276 40.467766,38.629944 41.377869,40.321972 
	C42.673859,37.989315 43.574734,36.367821 44.624172,34.478931 
	C44.957436,36.494930 45.221523,38.092487 45.485615,39.690044 
	C45.970360,39.659252 46.455105,39.628460 46.939850,39.597668 
	C47.116570,38.238377 47.546169,36.854187 47.415337,35.525173 
	C47.172085,33.054199 46.602131,30.615389 46.168186,28.163187 
	C44.773449,30.140568 43.384586,32.122154 41.975632,34.089355 
	C41.820915,34.305370 41.550900,34.438808 41.097034,34.798771 
	C40.391991,33.031097 39.991032,31.164175 38.952980,29.772444 
	C38.401485,29.033051 36.254715,28.498053 35.683693,28.950552 
	C34.198139,30.127771 35.442451,37.915749 37.065208,39.428608 
	C37.734131,38.247993 38.403053,37.067383 39.309532,36.476604 
M29.148954,35.797161 
	C30.532339,35.287792 31.915724,34.778423 34.248512,33.919479 
	C31.832056,33.171898 30.428518,32.737686 29.024982,32.303474 
	C28.964977,31.895662 28.904972,31.487848 28.844969,31.080036 
	C30.515667,30.526396 32.186367,29.972755 33.857067,29.419115 
	C33.821846,29.135601 33.786621,28.852085 33.751400,28.568569 
	C31.626219,28.568569 29.501038,28.568569 27.254480,28.568569 
	C27.254480,32.178864 27.254480,35.758575 27.254480,39.338287 
	C27.603905,39.392662 27.953329,39.447041 28.302753,39.501415 
	C28.551056,38.522060 28.799358,37.542706 29.148954,35.797161 
M27.266165,49.070728 
	C28.693125,51.496906 30.537685,51.389141 31.880531,49.302898 
	C32.346786,48.578522 31.687681,46.211212 30.886578,45.760647 
	C28.411432,44.368561 27.271246,45.870747 27.266165,49.070728 
M40.522331,48.353790 
	C39.164513,47.417313 37.806694,46.480835 36.448875,45.544357 
	C36.124649,46.852745 35.115105,48.566624 35.604439,49.393631 
	C37.083725,51.893719 38.838772,50.865170 40.522331,48.353790 
z"/>
<path fill="#60E2A6" opacity="1.000000" stroke="none" 
	d="
M24.491737,17.102957 
	C24.925812,30.086336 24.914644,42.999599 24.666580,56.416878 
	C24.429684,56.920891 24.013937,57.004948 23.571480,57.000900 
	C15.003702,56.959072 15.003435,56.959072 14.998919,48.640209 
	C14.997746,46.478874 15.119858,44.309265 14.972832,42.157982 
	C14.694591,38.086758 14.262407,34.026054 13.894186,29.960981 
	C13.929022,27.305843 14.203236,24.626984 13.943035,22.001081 
	C13.544880,17.982958 15.159170,16.489033 19.069653,16.966282 
	C20.706923,17.166098 22.386278,17.021078 24.491737,17.102957 
z"/>
<path fill="#60E0A5" opacity="1.000000" stroke="none" 
	d="
M85.527512,46.707314 
	C85.157089,37.077534 85.063210,27.567217 84.990707,17.597691 
	C88.140808,17.138485 91.269524,17.138485 94.885544,17.138485 
	C94.885544,28.634939 94.885544,40.022682 94.823517,51.911335 
	C91.775665,50.550426 88.789856,48.688602 85.527512,46.707314 
z"/>
<path fill="#FBD802" opacity="1.000000" stroke="none" 
	d="
M67.504860,58.033176 
	C67.867714,58.017918 68.230576,58.002659 68.867409,57.967567 
	C70.532326,57.685989 71.923264,57.424248 74.093979,57.076977 
	C82.054367,56.385456 87.799530,59.347717 92.785530,64.197090 
	C92.892311,64.573914 92.999092,64.950737 93.197716,65.606903 
	C92.399155,66.163658 91.508759,66.441078 90.011574,66.688568 
	C88.896873,66.230225 88.378929,65.813087 87.882553,65.371689 
	C81.797554,59.960709 74.393761,59.495987 67.804237,64.115845 
	C61.418964,68.592506 59.158012,76.276672 62.446815,83.519318 
	C63.517635,85.877502 65.461838,87.839096 67.006584,89.982079 
	C66.420204,90.842445 65.833824,91.702820 65.097931,92.838020 
	C64.785507,93.073761 64.622574,93.034668 64.062302,92.749931 
	C63.430958,92.302917 63.169323,92.148300 62.880058,92.040443 
	C56.386169,86.677109 56.712883,79.307228 56.969437,71.249268 
	C57.014481,70.371605 57.061928,70.201958 57.435028,69.938194 
	C59.266838,67.586449 60.772995,65.328835 62.571758,62.935459 
	C64.411201,61.210865 65.958031,59.622021 67.504860,58.033176 
z"/>
<path fill="#127D44" opacity="1.000000" stroke="none" 
	d="
M57.109375,70.032318 
	C57.061928,70.201958 57.014481,70.371605 56.892624,70.794746 
	C48.451244,74.016296 40.084270,76.984344 30.988152,79.931808 
	C28.810537,76.945580 27.362068,73.979927 25.846336,70.685028 
	C25.667141,70.161705 25.555206,69.967644 25.566090,69.565361 
	C25.688906,69.357147 25.983646,68.974541 26.341633,68.978912 
	C27.176971,68.984612 27.654322,68.985939 28.144627,69.359207 
	C29.336653,70.771309 30.515722,71.811470 31.694790,72.851631 
	C32.360500,71.246231 33.026211,69.640831 33.996113,68.025841 
	C36.230484,68.398987 39.176510,69.770943 39.924671,69.002647 
	C44.507622,64.296356 50.526852,65.187637 56.020798,64.489922 
	C56.377510,66.600006 56.743446,68.316162 57.109375,70.032318 
z"/>
<path fill="#5AD39B" opacity="1.000000" stroke="none" 
	d="
M25.443274,69.773575 
	C25.555206,69.967644 25.667141,70.161705 25.419014,70.680687 
	C21.742264,71.339882 18.425573,71.674164 15.108883,72.008453 
	C14.402164,69.633568 13.695445,67.258675 12.983191,64.067047 
	C11.612082,57.147335 10.246507,51.044369 8.880933,44.941406 
	C9.347026,44.626621 9.813118,44.311840 10.798003,44.162628 
	C11.680248,44.776684 12.043699,45.225166 12.986910,46.389042 
	C12.986910,40.357464 12.986910,35.261700 12.986910,30.165932 
	C12.986910,30.165932 13.429987,30.016706 13.662086,29.988844 
	C14.262407,34.026054 14.694591,38.086758 14.972832,42.157982 
	C15.119858,44.309265 14.997746,46.478874 14.998919,48.640209 
	C15.003435,56.959072 15.003702,56.959072 23.565125,57.331657 
	C24.011408,58.107353 24.021591,58.548237 23.578854,58.989941 
	C14.644104,59.002769 13.525369,60.099522 16.122387,66.755226 
	C16.642679,68.088638 19.017649,68.944336 20.708443,69.500168 
	C22.159832,69.977287 23.855583,69.711075 25.443274,69.773575 
z"/>
<path fill="#60E2A6" opacity="1.000000" stroke="none" 
	d="
M15.142345,72.374008 
	C18.425573,71.674164 21.742264,71.339882 25.486275,71.009933 
	C27.362068,73.979927 28.810537,76.945580 30.608231,79.979233 
	C30.766636,80.291214 30.610897,80.706184 30.379751,80.753609 
	C26.767780,81.494637 22.306454,83.782509 19.763329,82.443207 
	C17.232607,81.110451 16.626074,76.123947 15.142345,72.374008 
z"/>
<path fill="#60E1A6" opacity="1.000000" stroke="none" 
	d="
M8.479014,44.985085 
	C10.246507,51.044369 11.612082,57.147335 12.970118,63.683537 
	C10.978766,59.218197 8.837780,54.373543 7.125121,49.381927 
	C6.713114,48.181114 7.721778,46.492855 8.479014,44.985085 
z"/>
<path fill="#61E2A6" opacity="1.000000" stroke="none" 
	d="
M12.589556,30.095238 
	C12.986910,35.261700 12.986910,40.357464 12.986910,46.389042 
	C12.043699,45.225166 11.680248,44.776684 11.105956,44.142025 
	C10.347949,40.849350 9.831161,37.737095 9.244052,34.638165 
	C8.769938,32.135647 8.723968,29.976040 12.589556,30.095238 
z"/>
<path fill="#FFD200" opacity="1.000000" stroke="none" 
	d="
M62.972160,92.290375 
	C63.169323,92.148300 63.430958,92.302917 63.824558,92.668404 
	C63.677525,92.735115 63.370892,92.637711 62.972160,92.290375 
z"/>
<path fill="#F5BF00" opacity="1.000000" stroke="none" 
	d="
M67.365814,90.061127 
	C65.461838,87.839096 63.517635,85.877502 62.446815,83.519318 
	C59.158012,76.276672 61.418964,68.592506 67.804237,64.115845 
	C74.393761,59.495987 81.797554,59.960709 87.882553,65.371689 
	C88.378929,65.813087 88.896873,66.230225 89.693512,66.832542 
	C93.420433,73.540291 94.713326,80.158722 89.840439,86.524559 
	C84.327156,93.726990 76.950081,94.818588 67.365814,90.061127 
M81.227982,69.733475 
	C80.289825,69.491737 79.342049,69.016953 78.415459,69.055252 
	C76.277870,69.143585 73.277481,68.115845 73.111633,71.743599 
	C72.994080,74.314995 71.810104,77.695541 76.344124,78.169403 
	C77.089226,78.247284 77.732765,79.297058 78.423241,79.897659 
	C77.632866,80.576553 76.935791,81.452621 76.027550,81.882423 
	C74.986801,82.374916 73.758629,82.471359 71.742378,82.943466 
	C75.793037,85.939484 79.261162,85.643990 81.156342,82.667938 
	C84.332710,77.680016 79.770004,75.621147 75.863831,73.492943 
	C78.077942,72.281723 79.789993,71.345146 81.227982,69.733475 
z"/>
<path fill="#EE6F48" opacity="1.000000" stroke="none" 
	d="
M92.837929,63.758171 
	C87.799530,59.347717 82.054367,56.385456 74.434937,56.961540 
	C76.558884,51.742321 80.654877,49.804008 86.038383,51.232975 
	C90.834190,52.505947 93.081909,56.470741 92.837929,63.758171 
z"/>
<path fill="#5FE0A4" opacity="1.000000" stroke="none" 
	d="
M75.933647,42.968487 
	C73.194168,45.295895 70.803810,48.430252 67.648087,49.795567 
	C59.054787,53.513451 50.342056,47.970154 49.357727,38.344566 
	C51.551868,38.418907 53.861183,39.461536 55.208096,38.730633 
	C56.295673,38.140453 57.147678,34.699989 56.451595,33.794773 
	C55.356552,32.370731 52.872608,32.014717 50.976719,31.206503 
	C51.929169,25.569954 56.308479,23.737038 60.987976,23.191050 
	C67.007790,22.488672 71.996254,24.788237 75.056793,31.155476 
	C75.160881,32.307098 75.172043,32.764851 74.792908,33.131733 
	C72.354652,30.420164 69.707413,29.807631 67.966652,32.723896 
	C67.104164,34.168785 67.774773,37.078220 68.717773,38.794182 
	C69.122643,39.530903 71.984329,38.917480 73.729782,38.917480 
	C73.734222,38.445057 73.738655,37.972633 73.743095,37.500210 
	C72.384056,37.380882 71.025024,37.261555 70.475945,37.213345 
	C72.056519,35.802582 73.567436,34.453995 75.386124,33.309029 
	C76.969398,36.634285 78.044685,39.760994 75.933647,42.968487 
M58.057289,37.852810 
	C58.506001,38.436047 58.954712,39.019287 59.403423,39.602524 
	C59.843884,38.989464 60.507046,38.432796 60.679459,37.751865 
	C61.064568,36.230896 61.204937,34.647949 61.445004,33.090252 
	C61.814392,33.140217 62.183781,33.190186 62.553169,33.240150 
	C62.946373,35.418556 63.339581,37.596958 63.732784,39.775360 
	C64.397491,39.710030 65.062195,39.644699 65.726906,39.579369 
	C65.536652,37.144039 66.123672,34.156765 64.910263,32.447979 
	C63.939194,31.080484 60.779736,31.266975 58.034107,30.635593 
	C58.034107,33.443214 58.034107,35.232925 58.057289,37.852810 
z"/>
<path fill="#24A468" opacity="1.000000" stroke="none" 
	d="
M24.031773,58.989120 
	C24.021591,58.548237 24.011408,58.107353 24.007580,57.335709 
	C24.013937,57.004948 24.429684,56.920891 24.636105,56.873577 
	C26.985565,58.346756 29.128603,59.867249 31.596020,61.617886 
	C32.251537,59.933685 32.703770,58.771770 33.178123,57.553028 
	C34.713196,58.487835 36.238644,59.416782 37.727337,60.323345 
	C38.688812,59.286293 39.618717,58.283291 40.912174,57.278233 
	C41.275726,57.276173 41.662666,57.301842 41.662666,57.301842 
	C41.662666,57.301842 41.966698,57.030594 41.966698,57.030594 
	C48.338562,57.018814 54.710426,57.007030 61.522629,57.384750 
	C61.622654,59.470932 61.282345,61.167606 60.580956,62.905144 
	C58.823261,63.329338 57.426640,63.712669 56.030018,64.095993 
	C50.526852,65.187637 44.507622,64.296356 39.924671,69.002647 
	C39.176510,69.770943 36.230484,68.398987 33.639122,68.024689 
	C31.362518,68.351166 29.747095,68.669212 28.131672,68.987259 
	C27.654322,68.985939 27.176971,68.984612 26.320602,68.582977 
	C25.304977,65.118156 24.668375,62.053638 24.031773,58.989120 
z"/>
<path fill="#081F14" opacity="1.000000" stroke="none" 
	d="
M39.190754,36.181686 
	C38.403053,37.067383 37.734131,38.247993 37.067848,39.430092 
	C35.442451,37.915749 34.198139,30.127771 35.683693,28.950552 
	C36.254715,28.498053 38.401485,29.033051 38.952980,29.772444 
	C39.991032,31.164175 40.391991,33.031097 41.097034,34.798771 
	C41.550900,34.438808 41.820915,34.305370 41.975632,34.089355 
	C43.384586,32.122154 44.773449,30.140568 46.168190,28.163189 
	C46.602131,30.615389 47.172085,33.054199 47.415337,35.525173 
	C47.546169,36.854187 47.116570,38.238377 46.939850,39.597668 
	C46.455105,39.628460 45.970360,39.659252 45.485615,39.690044 
	C45.221523,38.092487 44.957436,36.494930 44.624172,34.478931 
	C43.574734,36.367821 42.673859,37.989315 41.377869,40.321972 
	C40.467766,38.629944 39.888649,37.553276 39.190754,36.181686 
z"/>
<path fill="#0B1A13" opacity="1.000000" stroke="none" 
	d="
M50.782913,31.494869 
	C52.872608,32.014717 55.356552,32.370731 56.451595,33.794773 
	C57.147678,34.699989 56.295673,38.140453 55.208096,38.730633 
	C53.861183,39.461536 51.551868,38.418907 49.363335,37.942787 
	C49.575268,35.756496 50.082184,33.769867 50.782913,31.494869 
z"/>
<path fill="#091E14" opacity="1.000000" stroke="none" 
	d="
M76.308624,42.988380 
	C78.044685,39.760994 76.969398,36.634285 75.408646,33.341637 
	C75.123383,33.170616 75.183197,33.222603 75.183197,33.222603 
	C75.172043,32.764851 75.160881,32.307098 75.142059,31.503862 
	C76.485092,31.941214 77.835800,32.724049 79.253220,33.545547 
	C79.900734,32.806255 80.749786,31.836863 81.598846,30.867470 
	C81.988960,31.105324 82.379082,31.343180 82.769196,31.581034 
	C80.695198,35.369423 82.008636,40.699253 76.308624,42.988380 
z"/>
<path fill="#030D09" opacity="1.000000" stroke="none" 
	d="
M29.098309,36.180256 
	C28.799358,37.542706 28.551056,38.522060 28.302753,39.501415 
	C27.953329,39.447041 27.603905,39.392662 27.254480,39.338287 
	C27.254480,35.758575 27.254480,32.178864 27.254480,28.568569 
	C29.501038,28.568569 31.626219,28.568569 33.751400,28.568569 
	C33.786621,28.852085 33.821846,29.135601 33.857067,29.419115 
	C32.186367,29.972755 30.515667,30.526396 28.844969,31.080036 
	C28.904972,31.487848 28.964977,31.895662 29.024982,32.303474 
	C30.428518,32.737686 31.832056,33.171898 34.248512,33.919479 
	C31.915724,34.778423 30.532339,35.287792 29.098309,36.180256 
z"/>
<path fill="#5EE1A4" opacity="1.000000" stroke="none" 
	d="
M27.186867,48.715630 
	C27.271246,45.870747 28.411432,44.368561 30.886578,45.760647 
	C31.687681,46.211212 32.346786,48.578522 31.880531,49.302898 
	C30.537685,51.389141 28.693125,51.496906 27.186867,48.715630 
z"/>
<path fill="#5EE1A4" opacity="1.000000" stroke="none" 
	d="
M40.398518,48.681198 
	C38.838772,50.865170 37.083725,51.893719 35.604439,49.393631 
	C35.115105,48.566624 36.124649,46.852745 36.448875,45.544357 
	C37.806694,46.480835 39.164513,47.417313 40.398518,48.681198 
z"/>
<path fill="#1F915A" opacity="1.000000" stroke="none" 
	d="
M60.942032,62.864285 
	C61.282345,61.167606 61.622654,59.470932 61.992046,57.403999 
	C63.589481,57.287006 65.157829,57.540268 67.115524,57.913353 
	C65.958031,59.622021 64.411201,61.210865 62.236061,62.892235 
	C61.385845,62.944607 61.163937,62.904446 60.942032,62.864285 
z"/>
<path fill="#1F915A" opacity="1.000000" stroke="none" 
	d="
M41.745441,57.036224 
	C41.966698,57.030594 41.662666,57.301842 41.662666,57.301842 
	C41.662666,57.301842 41.275726,57.276173 41.179497,57.178631 
	C41.083271,57.081089 41.524185,57.041851 41.745441,57.036224 
z"/>
<path fill="#136F39" opacity="1.000000" stroke="none" 
	d="
M60.580956,62.905144 
	C61.163937,62.904446 61.385845,62.944607 61.943451,63.027992 
	C60.772995,65.328835 59.266838,67.586449 57.435028,69.938194 
	C56.743446,68.316162 56.377510,66.600006 56.020798,64.489929 
	C57.426640,63.712669 58.823261,63.329338 60.580956,62.905144 
z"/>
<path fill="#61E3A7" opacity="1.000000" stroke="none" 
	d="
M23.578852,58.989941 
	C24.668375,62.053638 25.304977,65.118156 25.962614,68.578606 
	C25.983646,68.974541 25.688906,69.357147 25.566090,69.565361 
	C23.855583,69.711075 22.159832,69.977287 20.708443,69.500168 
	C19.017649,68.944336 16.642679,68.088638 16.122387,66.755226 
	C13.525369,60.099522 14.644104,59.002769 23.578852,58.989941 
z"/>
<path fill="#58D59B" opacity="1.000000" stroke="none" 
	d="
M28.144627,69.359207 
	C29.747095,68.669212 31.362518,68.351166 33.334930,68.034271 
	C33.026211,69.640831 32.360500,71.246231 31.694790,72.851631 
	C30.515722,71.811470 29.336653,70.771309 28.144627,69.359207 
z"/>
<path fill="#FDDF17" opacity="1.000000" stroke="none" 
	d="
M81.365013,70.071022 
	C79.789993,71.345146 78.077942,72.281723 75.863831,73.492943 
	C79.770004,75.621147 84.332710,77.680016 81.156342,82.667938 
	C79.261162,85.643990 75.793037,85.939484 71.742378,82.943466 
	C73.758629,82.471359 74.986801,82.374916 76.027550,81.882423 
	C76.935791,81.452621 77.632866,80.576553 78.423241,79.897659 
	C77.732765,79.297058 77.089226,78.247284 76.344124,78.169403 
	C71.810104,77.695541 72.994080,74.314995 73.111633,71.743599 
	C73.277481,68.115845 76.277870,69.143585 78.415459,69.055252 
	C79.342049,69.016953 80.289825,69.491737 81.365013,70.071022 
z"/>
<path fill="#173728" opacity="1.000000" stroke="none" 
	d="
M58.045700,37.437721 
	C58.034107,35.232925 58.034107,33.443214 58.034107,30.635593 
	C60.779736,31.266975 63.939194,31.080484 64.910263,32.447979 
	C66.123672,34.156765 65.536652,37.144039 65.726906,39.579369 
	C65.062195,39.644699 64.397491,39.710030 63.732784,39.775360 
	C63.339581,37.596958 62.946373,35.418556 62.553169,33.240150 
	C62.183781,33.190186 61.814392,33.140217 61.445004,33.090252 
	C61.204937,34.647949 61.064568,36.230896 60.679459,37.751865 
	C60.507046,38.432796 59.843884,38.989464 59.403423,39.602524 
	C58.954712,39.019287 58.506001,38.436047 58.045700,37.437721 
z"/>
<path fill="#0D1F17" opacity="1.000000" stroke="none" 
	d="
M75.100861,33.138012 
	C73.567436,34.453995 72.056519,35.802582 70.475945,37.213345 
	C71.025024,37.261555 72.384056,37.380882 73.743095,37.500210 
	C73.738655,37.972633 73.734222,38.445057 73.729782,38.917480 
	C71.984329,38.917480 69.122643,39.530903 68.717773,38.794182 
	C67.774773,37.078220 67.104164,34.168785 67.966652,32.723896 
	C69.707413,29.807631 72.354652,30.420164 74.792908,33.131733 
	C75.183197,33.222603 75.123383,33.170616 75.100861,33.138012 
z"/>
</svg>